# xmcd
#
# Track frame offsets: 
#        150
#        12040
#        24053
#        41650
#        60162
#        74826
#        95759
#        111440
#        129730
#        143775
#        160108
#        178988
#        195530
#        216861
#        236756
#        256551
#        272120
#
# Disc length: 3741 seconds
#
# Revision: 0
# Processed by: cddbd v1.5.2PL0 Copyright (c) Steve Scherf et al.
# Submitted via: ExactAudioCopy v0.99pb5
#
DISCID=f20e9b11
DTITLE=Paul Mauriat - The Best Of Love Song CD1
DYEAR=2004
DGENRE=Instrumental Pop
TTITLE0=LOVE IS BLUE
TTITLE1=EL BIMBO
TTITLE2=MAGNIFICENT TREE
TTITLE3=(EVERYTHING I DO)I DO IT FOR YOU (from ROBIN HOOD)
TTITLE4=I WILL FOLLOW HIM
TTITLE5=CALLING YOU (from BAGDAD CAFE)
TTITLE6=I WILL ALWAYS LOVE YOU (from THE BODYGUARD)
TTITLE7=CAN YOU FEEL THE LOVE TONIGHT (from THE LION KING)
TTITLE8=CHARADE
TTITLE9=RIO FOREVER
TTITLE10=PENELOPE
TTITLE11=NOCTURNE
TTITLE12=CONQUEST OF PARADISE (from 1492 CHRISTOPHER COLOMBUS)
TTITLE13=SAY YES
TTITLE14=YAH YAH YAH
TTITLE15=CHARIOTS OF FIRE
TTITLE16=To C and A(PART 3)
EXTD=
EXTT0=
EXTT1=
EXTT2=
EXTT3=
EXTT4=
EXTT5=
EXTT6=
EXTT7=
EXTT8=
EXTT9=
EXTT10=
EXTT11=
EXTT12=
EXTT13=
EXTT14=
EXTT15=
EXTT16=
PLAYORDER=
